<?xml version="1.0" encoding="UTF-8" standalone="no"?>
<!-- Created with Inkscape (http://www.inkscape.org/) -->

<svg
   xmlns:dc="http://purl.org/dc/elements/1.1/"
   xmlns:cc="http://creativecommons.org/ns#"
   xmlns:rdf="http://www.w3.org/1999/02/22-rdf-syntax-ns#"
   xmlns:svg="http://www.w3.org/2000/svg"
   xmlns="http://www.w3.org/2000/svg"
   xmlns:sodipodi="http://sodipodi.sourceforge.net/DTD/sodipodi-0.dtd"
   xmlns:inkscape="http://www.inkscape.org/namespaces/inkscape"
   width="990"
   height="765"
   id="svg11733"
   sodipodi:version="0.32"
   inkscape:version="0.48.0 r9654"
   sodipodi:docname="t-shirt-design-2014.svg"
   version="1.0"
   inkscape:export-filename="/tmp/ppw-2007-t-shirt-design.png"
   inkscape:export-xdpi="76.059998"
   inkscape:export-ydpi="76.059998"
   inkscape:output_extension="org.inkscape.output.svg.inkscape">
  <defs
     id="defs11735">
    <inkscape:perspective
       sodipodi:type="inkscape:persp3d"
       inkscape:vp_x="0 : 382.5 : 1"
       inkscape:vp_y="0 : 1000 : 0"
       inkscape:vp_z="990 : 382.5 : 1"
       inkscape:persp3d-origin="495 : 255 : 1"
       id="perspective37" />
  </defs>
  <sodipodi:namedview
     id="base"
     pagecolor="#ffffff"
     bordercolor="#666666"
     borderopacity="1.0"
     gridtolerance="10000"
     guidetolerance="10"
     objecttolerance="10"
     inkscape:pageopacity="0.0"
     inkscape:pageshadow="2"
     inkscape:zoom="1.4142136"
     inkscape:cx="401.01177"
     inkscape:cy="468.92687"
     inkscape:document-units="px"
     inkscape:current-layer="layer2"
     inkscape:window-width="1520"
     inkscape:window-height="1035"
     inkscape:window-x="0"
     inkscape:window-y="27"
     width="8.5in"
     height="11in"
     showgrid="false"
     inkscape:window-maximized="0" />
  <metadata
     id="metadata11738">
    <rdf:RDF>
      <cc:Work
         rdf:about="">
        <dc:format>image/svg+xml</dc:format>
        <dc:type
           rdf:resource="http://purl.org/dc/dcmitype/StillImage" />
        <dc:title></dc:title>
      </cc:Work>
    </rdf:RDF>
  </metadata>
  <g
     inkscape:label="T-shirt background"
     inkscape:groupmode="layer"
     id="layer1"
     sodipodi:insensitive="true">
    <path
       style="fill:#e6e6e6"
       d="M 158.71213,627.86085 C 140.30151,627.12607 112.815,622.87375 109.22458,620.20485 C 106.36798,618.0814 106.24319,615.29167 108.26524,598.75502 C 109.59572,587.874 110.35476,554.45925 110.04044,520.6072 C 109.73843,488.08081 109.39825,433.9612 109.28451,400.34141 L 109.0777,339.21453 L 90.632915,335.57431 C 72.566974,332.00887 24.449881,311.93897 17.242498,304.96278 C 14.55793,302.36434 14.528635,301.2749 17.035322,297.26103 C 18.641175,294.68968 28.6826,273.04229 39.349652,249.15573 C 60.546423,201.69005 73.525469,177.79889 81.539341,171.49519 C 84.391526,169.25165 93.655358,165.32309 102.12563,162.76506 C 140.33017,151.22723 152.43549,147.08986 168.51799,140.07333 L 185.71621,132.56999 L 199.14349,135.88792 C 235.44351,144.85775 258.9512,145.67895 284.8646,138.8825 L 302.83902,134.16824 L 339.02087,146.21735 C 358.9209,152.84437 383.51871,160.78011 393.68268,163.85233 C 416.98817,170.89683 421.01695,175.22561 438.65132,212.16963 C 460.82494,258.62342 479.76882,300.80664 479.76012,303.70853 C 479.74929,307.32244 431.59915,330.48573 415.41696,334.66172 C 408.49338,336.44841 399.75783,337.91026 396.00466,337.91026 C 392.25147,337.91026 388.62968,338.80182 387.95622,339.8915 C 385.61563,343.67867 385.96567,600.40733 388.32421,609.78263 C 389.96441,616.30246 389.92168,619.23233 388.16516,620.68607 C 382.76675,625.15401 219.11024,630.27138 158.71213,627.86085 z"
       id="path12106"
       sodipodi:nodetypes="cssscccsssssccccccssssssssc" />
    <path
       sodipodi:nodetypes="cssscccsssssccccccssssssssc"
       id="path12119"
       d="M 640.75346,627.86085 C 622.34285,627.12607 594.85634,622.87375 591.26591,620.20485 C 588.40932,618.0814 588.28453,615.29167 590.30657,598.75502 C 591.63705,587.874 592.3961,554.45925 592.08177,520.6072 C 591.77976,488.08081 591.43959,433.9612 591.32585,400.34141 L 591.11903,339.21453 L 572.67425,335.57431 C 554.60831,332.00887 506.49121,311.93897 499.28383,304.96278 C 496.59926,302.36434 496.56997,301.2749 499.07666,297.26103 C 500.68251,294.68968 510.72394,273.04229 521.39099,249.15573 C 542.58776,201.69005 555.5668,177.79889 563.58068,171.49519 C 566.43286,169.25165 575.69669,165.32309 584.16696,162.76506 C 622.37151,151.22723 634.47682,147.08986 650.55932,140.07333 L 667.75755,132.56999 L 681.18482,135.88792 C 717.48485,144.85775 740.99254,145.67895 766.90594,138.8825 L 784.88035,134.16824 L 821.06221,146.21735 C 840.96223,152.84437 865.56005,160.78011 875.72398,163.85233 C 899.0295,170.89683 903.05825,175.22561 920.69268,212.16963 C 942.86632,258.62342 961.8102,300.80664 961.80148,303.70853 C 961.79058,307.32244 913.6405,330.48573 897.45829,334.66172 C 890.53468,336.44841 881.79918,337.91026 878.04597,337.91026 C 874.29276,337.91026 870.67102,338.80182 869.99755,339.8915 C 867.65696,343.67867 868.007,600.40733 870.36554,609.78263 C 872.00572,616.30246 871.96301,619.23233 870.2065,620.68607 C 864.80809,625.15401 701.15158,630.27138 640.75346,627.86085 z"
       style="fill:#e6e6e6" />
  </g>
  <g
     inkscape:groupmode="layer"
     id="layer2"
     inkscape:label="Artwork 1">
    <text
       xml:space="preserve"
       style="font-size:20px;font-style:normal;font-variant:normal;font-weight:bold;font-stretch:normal;text-align:start;line-height:100%;writing-mode:lr-tb;text-anchor:start;fill:#0071bc;fill-opacity:1;stroke:none;stroke-width:1px;stroke-linecap:butt;stroke-linejoin:miter;stroke-opacity:1;font-family:Bitstream Vera Sans"
       x="685"
       y="251"
       id="text17011"
       sodipodi:linespacing="100%"><tspan
         sodipodi:role="line"
         id="tspan17013"
         x="685"
         y="251">pittsburgh</tspan><tspan
         sodipodi:role="line"
         x="685"
         y="271"
         id="tspan17015">perl</tspan><tspan
         sodipodi:role="line"
         x="685"
         y="291"
         id="tspan17017">workshop</tspan></text>
    <text
       xml:space="preserve"
       style="font-size:20.75px;font-style:normal;font-variant:normal;font-weight:bold;font-stretch:normal;text-align:center;line-height:100%;writing-mode:lr-tb;text-anchor:middle;fill:#ffc20e;fill-opacity:1;stroke:none;font-family:Bitstream Vera Sans;-inkscape-font-specification:Bitstream Vera Sans Bold"
       x="-265.72461"
       y="676.21094"
       id="text17019"
       sodipodi:linespacing="100%"
       transform="matrix(0,-1,1,0,0,0)"><tspan
         sodipodi:role="line"
         id="tspan3042"
         x="-265.72461"
         y="676.21094">2014</tspan></text>
    <text
       sodipodi:linespacing="100%"
       id="text17023"
       y="676.21918"
       x="-300.70898"
       style="font-size:20.75px;font-style:normal;font-variant:normal;font-weight:normal;font-stretch:normal;text-align:end;line-height:100%;writing-mode:lr-tb;text-anchor:end;fill:#ffc20e;fill-opacity:1;stroke:none;stroke-width:1px;stroke-linecap:butt;stroke-linejoin:miter;stroke-opacity:1;font-family:Bitstream Vera Sans"
       xml:space="preserve"
       transform="matrix(0,-1,1,0,0,0)"><tspan
         id="tspan17029"
         y="676.21918"
         x="-300.70898"
         sodipodi:role="line">pghpw.org</tspan><tspan
         y="696.96918"
         x="-300.70898"
         sodipodi:role="line"
         id="tspan17035" /></text>
    <text
       xml:space="preserve"
       style="font-size:48px;font-style:normal;font-variant:normal;font-weight:bold;font-stretch:normal;text-align:center;line-height:100%;writing-mode:lr-tb;text-anchor:middle;fill:#000000;fill-opacity:1;stroke:none;stroke-width:1px;stroke-linecap:butt;stroke-linejoin:miter;stroke-opacity:1;font-family:Bitstream Vera Sans"
       x="246.43869"
       y="100.09118"
       id="text17209"
       sodipodi:linespacing="100%"><tspan
         sodipodi:role="line"
         id="tspan17211"
         x="246.43869"
         y="100.09118">Front</tspan></text>
    <text
       sodipodi:linespacing="100%"
       id="text17213"
       y="100.09118"
       x="725.43872"
       style="font-size:48px;font-style:normal;font-variant:normal;font-weight:bold;font-stretch:normal;text-align:center;line-height:100%;writing-mode:lr-tb;text-anchor:middle;fill:#000000;fill-opacity:1;stroke:none;stroke-width:1px;stroke-linecap:butt;stroke-linejoin:miter;stroke-opacity:1;font-family:Bitstream Vera Sans"
       xml:space="preserve"><tspan
         y="100.09118"
         x="725.43872"
         id="tspan17215"
         sodipodi:role="line">Back</tspan></text>
    <g
       id="g3820"
       transform="matrix(0.68385322,0,0,0.68385322,139.4696,62.626583)">
      <g
         style="fill:#0071bc;fill-opacity:1"
         transform="matrix(1.478679,0,0,1.478679,195.18992,226.87906)"
         id="g2545">
        <path
           style="fill:#0071bc;fill-opacity:1"
           id="path2547"
           d="m 0.416,42.342 c 0,-2.202 -0.068,-4.062 -0.137,-5.644 l 4.543,0 0.241,2.34 0.069,0 c 1.238,-1.756 3.166,-2.72 5.61,-2.72 3.684,0 6.987,3.201 6.987,8.571 0,6.127 -3.889,9.019 -7.643,9.019 -2.029,0 -3.613,-0.827 -4.37,-1.929 l -0.068,0 0,8.364 -5.232,0 0,-18.001 z M 5.648,46.3 c 0,0.414 0.035,0.759 0.104,1.103 0.344,1.411 1.549,2.478 3.063,2.478 2.273,0 3.615,-1.893 3.615,-4.75 0,-2.685 -1.205,-4.716 -3.546,-4.716 -1.479,0 -2.788,1.102 -3.132,2.651 -0.068,0.274 -0.104,0.619 -0.104,0.929 l 0,2.305 0,0 z"
           inkscape:connector-curvature="0" />
        <path
           style="fill:#0071bc;fill-opacity:1"
           id="path2549"
           d="M 21,42.342 C 21,40.14 20.931,38.28 20.861,36.698 l 4.545,0 0.241,2.34 0.067,0 c 1.24,-1.756 3.167,-2.72 5.612,-2.72 3.683,0 6.986,3.201 6.986,8.571 0,6.127 -3.889,9.019 -7.642,9.019 -2.03,0 -3.614,-0.827 -4.37,-1.929 l -0.069,0 0,8.364 -5.231,0 0,-18.001 z m 5.232,3.958 c 0,0.414 0.033,0.759 0.103,1.103 0.345,1.411 1.549,2.478 3.063,2.478 2.271,0 3.614,-1.893 3.614,-4.75 0,-2.685 -1.204,-4.716 -3.545,-4.716 -1.48,0 -2.788,1.102 -3.133,2.651 -0.069,0.274 -0.103,0.619 -0.103,0.929 l 0,2.305 10e-4,0 z"
           inkscape:connector-curvature="0" />
        <path
           style="fill:#0071bc;fill-opacity:1"
           id="path2551"
           d="m 44.929,36.698 1.377,6.917 c 0.31,1.722 0.653,3.58 0.93,5.509 l 0.103,0 c 0.311,-1.894 0.825,-3.821 1.205,-5.474 l 1.79,-6.952 4.13,0 1.687,6.711 c 0.482,1.928 0.93,3.786 1.239,5.715 l 0.069,0 c 0.24,-1.894 0.584,-3.821 0.998,-5.749 l 1.41,-6.677 5.13,0 -5.163,16.831 -4.888,0 -1.584,-5.887 C 52.915,45.99 52.605,44.475 52.261,42.376 l -0.069,0 c -0.31,2.099 -0.653,3.683 -1.067,5.232 l -1.687,5.92 -4.922,0 -4.922,-16.831 5.335,0 0,10e-4 z"
           inkscape:connector-curvature="0" />
      </g>
      <path
         style="fill:none;stroke:#ffc20e;stroke-width:7.39339495"
         id="path2553"
         d="m 198.88661,274.74982 c 0,-24.39525 19.77586,-44.17406 44.1711,-44.17406 24.39525,0 44.17258,19.77881 44.17258,44.17406"
         inkscape:connector-curvature="0" />
      <line
         style="fill:none;stroke:#ffc20e;stroke-width:2.95735788"
         id="line2555"
         y2="261.24506"
         x2="217.79735"
         y1="247.68108"
         x1="217.79735" />
      <line
         style="fill:none;stroke:#ffc20e;stroke-width:2.95735788"
         id="line2557"
         y2="261.24506"
         x2="230.42821"
         y1="240.04228"
         x1="230.42821" />
      <line
         style="fill:none;stroke:#ffc20e;stroke-width:2.95735788"
         id="line2559"
         y2="261.24506"
         x2="255.68849"
         y1="240.04228"
         x1="255.68849" />
      <line
         style="fill:none;stroke:#ffc20e;stroke-width:2.95735788"
         id="line2561"
         y2="261.24506"
         x2="243.05907"
         y1="237.79312"
         x1="243.05907" />
      <line
         style="fill:none;stroke:#ffc20e;stroke-width:2.95735788"
         id="line2563"
         y2="261.24506"
         x2="268.31937"
         y1="247.68108"
         x1="268.31937" />
      <polygon
         transform="matrix(1.478679,0,0,1.478679,195.18992,226.87906)"
         style="fill:#ffc20e"
         id="polygon2565"
         points="56.683,24.663 57.163,28.216 57.163,28.216 7.582,28.216 8.002,24.663 " />
    </g>
  </g>
</svg>
