<?xml version="1.0" encoding="utf-8"?>
<!-- Generator: Adobe Illustrator 17.1.0, SVG Export Plug-In . SVG Version: 6.00 Build 0)  -->
<!DOCTYPE svg PUBLIC "-//W3C//DTD SVG 1.1//EN" "http://www.w3.org/Graphics/SVG/1.1/DTD/svg11.dtd">
<svg version="1.1" id="Layer_1" xmlns="http://www.w3.org/2000/svg" xmlns:xlink="http://www.w3.org/1999/xlink" x="0px" y="0px"
	 viewBox="0 0 504 360" enable-background="new 0 0 504 360" xml:space="preserve">
<g>
	<path fill="#FFFFFF" d="M343.1,117V95.2h-53.9V74.4h-43.4v14.5H228v-8.2h-48.3v19.2h-34.9V117h-9.4v54.1h44.3v11.1H194v12.4h51.7
		V212h43.4v-22.3h53.9v-18.6h9.5V117H343.1z M346.3,164.7h-3.1h-6.4v6.4v12.2h-47.5h-6.4v6.4v15.9h-30.6v-10.9v-6.4h-6.4h-45.3v-6
		v-6.4H194h-8v-4.7v-6.4h-6.4h-37.9v-41.3h3h6.4V117v-10.8h28.5h6.4v-6.4V87.1h35.5v27.6h0.6h5.8h0.6V95.3h17.2h6.4v-6.4v-8.1h30.6
		v14.4v6.4h6.4h47.5V117v6.4h6.4h3.1V164.7z"/>
	<g>
		<rect x="151.2" y="106.2" fill="#5C8727" width="34.9" height="17.2"/>
		<rect x="228.6" y="95.3" fill="#7A68AE" width="23.6" height="19.3"/>
		<rect x="186.1" y="164.7" fill="#DE396E" width="14.4" height="11.1"/>
		<polygon fill="#DE396E" points="200.4,123.4 200.4,114.6 221.6,114.6 221.6,87.1 186.1,87.1 186.1,106.2 186.1,123.4 		"/>
		<polygon fill="#54BCEB" points="200.4,164.7 200.4,175.8 200.4,188.2 252.2,188.2 252.2,164.7 		"/>
		<polygon fill="#54BCEB" points="200.4,123.4 252.2,123.4 252.2,114.6 228.6,114.6 221.6,114.6 200.4,114.6 		"/>
		<rect x="282.8" y="101.6" fill="#C41230" width="53.9" height="21.8"/>
		<rect x="282.8" y="164.7" fill="#C41230" width="53.9" height="18.6"/>
		<polygon fill="#F6A01A" points="252.2,123.4 282.8,123.4 282.8,101.6 282.8,80.8 252.2,80.8 252.2,95.3 252.2,114.6 		"/>
		<polygon fill="#F6A01A" points="252.2,164.7 252.2,188.2 252.2,205.6 282.8,205.6 282.8,183.3 282.8,164.7 		"/>
		<path fill="#005288" d="M282.8,123.4h-30.6h-51.7h-14.4h-34.9h-9.4v41.3h44.3h14.4h51.7h30.6h53.9h9.5v-41.3h-9.5H282.8z
			 M184.7,156.4h-3.4v-20.6h-0.1l-8.5,20.6h-2.3l-8.5-20.6H162v20.6h-3.4v-25h5.1l8,19h0.1l7.9-19h5.1V156.4z M205,149.1h-13.4
			c0,2.9,2.7,4.9,5.7,4.9c1.9,0,3.4-1,4.6-2.5l2.4,1.8c-1.8,2.3-4.2,3.4-7.4,3.4c-5.3,0-8.6-3.8-8.6-8.8c0-5,3.6-8.8,8.7-8.8
			c5.9,0,8.2,4.5,8.2,8.8V149.1z M224.7,156.4h-3.2h-0.1c0,0-3.6,0-5.8,0c-5.2,0-8.5-3.4-8.5-8.4c0-5,3.4-8.8,8.5-8.8
			c2.4,0,4.7,1.1,5.8,2.8h0.1v-10.7h3.2V156.4z M232.1,156.4h-3.2v-16.8h3.2V156.4z M232.1,136.9h-3.2v-3.2h3.2V136.9z M250,153.3
			c0,1.2,0,3,0,3h-2.7h-0.2c0,0-3.3,0-5.9,0c-3.1,0-5.8-1.3-5.8-4.6c0-4.3,4.1-5.8,9.2-5.8h2.3v-0.7c0-1.7-1.3-3.5-4-3.5
			c-2.4,0-3.6,1-4.8,1.9l-1.9-2c1.8-1.7,4.3-2.5,6.6-2.5c4.9,0,7,2.7,7,5.6V153.3z M280.4,156.4H277v-20.6h-0.1l-8.5,20.6h-2.3
			l-8.4-20.6h-0.1v20.6h-3.4v-25h5.1l8,19h0.1l7.9-19h5.1V156.4z M297.5,153.3c0,1.2,0,3,0,3h-2.7h-0.2c0,0-3.3,0-5.9,0
			c-3.1,0-5.8-1.3-5.8-4.6c0-4.3,4.1-5.8,9.2-5.8h2.3v-0.7c0-1.7-1.3-3.5-4-3.5c-2.4,0-3.6,1-4.8,1.9l-1.9-2
			c1.8-1.7,4.3-2.5,6.6-2.5c4.9,0,7,2.7,7,5.6V153.3z M311.4,156.2c-0.7,0.4-2.2,0.6-2.9,0.6c-4.9,0-5-3-5-5.7v-8.7h-3.7v-2.8h3.7
			v-4.7h3.2v4.7h4.6v2.8h-4.6v7.6c0,1.9,0,3.9,2.4,3.9c0.7,0,1.6-0.1,2.3-0.5V156.2z M329.4,156.4h-3.2v-9.9c0-3.1-1.8-4.3-3.8-4.3
			c-2.6,0-4.7,1.7-4.7,5.6v8.6h-3.2v-25h3.2l0.1,7.8c0,0,2.9,0,5.5,0c3.3,0,6.1,1.9,6.1,6.4V156.4z"/>
		<path fill="#005388" stroke="#005288" stroke-width="1.309" d="M196.8,141.7c-3.1,0-5.2,2.7-5.2,4.9h10
			C201.5,143.8,200,141.7,196.8,141.7z"/>
		<path fill="#005388" stroke="#005288" stroke-width="1.309" d="M238.6,151.5c0,1.9,1.4,2.7,3.6,2.7c3.5,0,4.8-2.6,4.8-4.9v-1.1
			h-1.7C242.3,148.3,238.6,148.8,238.6,151.5z"/>
		<path fill="#005388" stroke="#005288" stroke-width="1.309" d="M216,142.1c-3.4,0-5.5,2.4-5.5,5.8c0,3.4,2.1,5.8,5.5,5.8
			c3.4,0,5.5-2.4,5.5-5.8C221.6,144.6,219.4,142.1,216,142.1z"/>
		<path fill="#005388" stroke="#005288" stroke-width="1.309" d="M286.1,151.5c0,1.9,1.4,2.7,3.6,2.7c3.5,0,4.8-2.6,4.8-4.9v-1.1
			h-1.7C289.8,148.3,286.1,148.8,286.1,151.5z"/>
		<polygon fill="#FFFFFF" points="171.7,150.3 171.6,150.3 163.6,131.3 158.6,131.3 158.6,156.4 162,156.4 162,135.8 162,135.8 
			170.5,156.4 172.8,156.4 181.2,135.8 181.3,135.8 181.3,156.4 184.7,156.4 184.7,131.3 179.6,131.3 		"/>
		<path fill="#FFFFFF" d="M196.8,139.2c-5,0-8.7,3.8-8.7,8.8c0,5,3.3,8.8,8.6,8.8c3.2,0,5.7-1.1,7.4-3.4l-2.4-1.8
			c-1.2,1.5-2.7,2.5-4.6,2.5c-2.9,0-5.7-1.9-5.7-4.9H205V148C205,143.7,202.7,139.2,196.8,139.2z M191.6,146.6
			c0-2.2,2.1-4.9,5.2-4.9c3.2,0,4.8,2.1,4.8,4.9H191.6z"/>
		<path fill="#FFFFFF" d="M221.6,142L221.6,142c-1.2-1.7-3.5-2.8-5.9-2.8c-5.2,0-8.5,3.8-8.5,8.8c0,4.9,3.3,8.4,8.5,8.4
			c2.3,0,5.8,0,5.8,0h0.1h3.2v-25h-3.2V142z M216,153.8c-3.4,0-5.5-2.4-5.5-5.8c0-3.4,2.1-5.8,5.5-5.8c3.4,0,5.5,2.4,5.5,5.8
			C221.6,151.4,219.4,153.8,216,153.8z"/>
		<rect x="228.9" y="139.6" fill="#FFFFFF" width="3.2" height="16.8"/>
		<path fill="#FFFFFF" d="M243,139.2c-2.3,0-4.9,0.8-6.6,2.5l1.9,2c1.2-0.9,2.3-1.9,4.8-1.9c2.7,0,4,1.8,4,3.5v0.7h-2.3
			c-5.1,0-9.2,1.5-9.2,5.8c0,3.3,2.7,4.6,5.8,4.6c2.5,0,5.9,0,5.9,0h0.2h2.7c0,0,0-1.9,0-3v-8.6C250,141.9,247.9,139.2,243,139.2z
			 M247,149.4c0,2.3-1.2,4.9-4.8,4.9c-2.2,0-3.6-0.8-3.6-2.7c0-2.7,3.7-3.2,6.7-3.2h1.7V149.4z"/>
		<path fill="#FFFFFF" d="M290.5,139.2c-2.3,0-4.9,0.8-6.6,2.5l1.9,2c1.2-0.9,2.3-1.9,4.8-1.9c2.7,0,4,1.8,4,3.5v0.7h-2.3
			c-5.1,0-9.2,1.5-9.2,5.8c0,3.3,2.7,4.6,5.8,4.6c2.5,0,5.9,0,5.9,0h0.2h2.7c0,0,0-1.9,0-3v-8.6
			C297.5,141.9,295.4,139.2,290.5,139.2z M294.5,149.4c0,2.3-1.2,4.9-4.8,4.9c-2.2,0-3.6-0.8-3.6-2.7c0-2.7,3.7-3.2,6.7-3.2h1.7
			V149.4z"/>
		<polygon fill="#FFFFFF" points="267.5,150.3 267.3,150.3 259.4,131.3 254.3,131.3 254.3,156.4 257.7,156.4 257.7,135.8 
			257.8,135.8 266.2,156.4 268.5,156.4 276.9,135.8 277,135.8 277,156.4 280.4,156.4 280.4,131.3 275.3,131.3 		"/>
		<path fill="#FFFFFF" d="M306.8,150v-7.6h4.6v-2.8h-4.6v-4.7h-3.2v4.7h-3.7v2.8h3.7v8.7c0,2.7,0.1,5.7,5,5.7c0.6,0,2.1-0.1,2.9-0.6
			v-2.9c-0.6,0.4-1.5,0.5-2.3,0.5C306.8,153.8,306.8,151.8,306.8,150z"/>
		<path fill="#FFFFFF" d="M323.3,139.2c-2.6,0-5.5,0-5.5,0l-0.1-7.8h-3.2v25h3.2v-8.6c0-3.9,2-5.6,4.7-5.6c2,0,3.8,1.2,3.8,4.3v9.9
			h3.2v-10.8C329.4,141.1,326.6,139.2,323.3,139.2z"/>
		<rect x="228.9" y="133.7" fill="#FFFFFF" width="3.2" height="3.2"/>
	</g>
</g>
<g>
	<path fill="#333333" d="M111.1,243h6.1c0.8,0,1.6,0.1,2.4,0.2s1.4,0.4,2,0.8c0.6,0.4,1,0.9,1.3,1.5c0.3,0.6,0.5,1.4,0.5,2.4
		c0,1-0.2,1.8-0.5,2.4c-0.3,0.6-0.7,1.2-1.3,1.5c-0.5,0.4-1.2,0.7-1.9,0.8c-0.7,0.2-1.5,0.2-2.4,0.2h-2.6v6.4h-3.6V243z
		 M114.7,249.9h2.4c0.3,0,0.6,0,0.9-0.1c0.3-0.1,0.6-0.2,0.8-0.3c0.2-0.1,0.4-0.3,0.6-0.6c0.1-0.3,0.2-0.6,0.2-1
		c0-0.4-0.1-0.7-0.3-1c-0.2-0.3-0.4-0.4-0.7-0.6c-0.3-0.1-0.6-0.2-1-0.3c-0.4,0-0.7-0.1-1.1-0.1h-1.8V249.9z"/>
	<path fill="#333333" d="M135.7,257.4c-0.6,0.7-1.3,1.3-2.1,1.6c-0.8,0.4-1.7,0.6-2.6,0.6c-0.9,0-1.7-0.1-2.4-0.4
		c-0.8-0.3-1.4-0.7-2-1.2c-0.6-0.5-1-1.1-1.3-1.9c-0.3-0.7-0.5-1.5-0.5-2.4c0-0.9,0.2-1.7,0.5-2.4c0.3-0.7,0.8-1.3,1.3-1.9
		c0.6-0.5,1.2-0.9,2-1.2c0.8-0.3,1.6-0.4,2.4-0.4c0.8,0,1.5,0.1,2.2,0.4c0.7,0.3,1.2,0.7,1.7,1.2c0.5,0.5,0.8,1.1,1,1.9
		c0.2,0.7,0.4,1.5,0.4,2.4v1.1h-8c0.1,0.7,0.4,1.2,0.9,1.6s1,0.6,1.7,0.6c0.6,0,1-0.1,1.4-0.4c0.4-0.3,0.7-0.6,1-1L135.7,257.4z
		 M132.8,252.4c0-0.6-0.2-1.1-0.6-1.5c-0.4-0.4-0.9-0.6-1.5-0.6c-0.4,0-0.7,0.1-1,0.2s-0.5,0.3-0.7,0.5c-0.2,0.2-0.4,0.4-0.5,0.7
		c-0.1,0.3-0.2,0.5-0.2,0.8H132.8z"/>
	<path fill="#333333" d="M138.4,248.1h3.5v1.8h0c0.4-0.7,0.8-1.2,1.3-1.6c0.5-0.3,1.1-0.5,1.9-0.5c0.2,0,0.4,0,0.6,0
		c0.2,0,0.4,0,0.6,0.1v3.2c-0.2-0.1-0.5-0.1-0.7-0.2c-0.2,0-0.5-0.1-0.7-0.1c-0.7,0-1.2,0.1-1.6,0.3c-0.4,0.2-0.7,0.4-0.9,0.8
		c-0.2,0.3-0.3,0.7-0.4,1.2c-0.1,0.5-0.1,1-0.1,1.5v4.7h-3.5V248.1z"/>
	<path fill="#333333" d="M148.9,250.9h-2.3v-2.8h2.3v-2c0-0.6,0.1-1.2,0.2-1.7c0.1-0.5,0.3-1,0.6-1.4c0.3-0.4,0.7-0.7,1.3-1
		s1.3-0.4,2.3-0.4c0.4,0,0.7,0,1,0c0.3,0,0.7,0.1,1,0.2l-0.2,2.9c-0.2-0.1-0.4-0.1-0.6-0.2c-0.2,0-0.4-0.1-0.6-0.1
		c-0.6,0-1,0.1-1.2,0.4c-0.3,0.2-0.4,0.7-0.4,1.5v1.8h2.6v2.8h-2.6v8.4h-3.5V250.9z"/>
	<path fill="#333333" d="M155.9,253.7c0-0.9,0.2-1.7,0.5-2.4c0.3-0.7,0.8-1.3,1.3-1.9c0.6-0.5,1.2-0.9,2-1.2
		c0.8-0.3,1.6-0.4,2.4-0.4s1.7,0.1,2.4,0.4s1.4,0.7,2,1.2c0.6,0.5,1,1.1,1.3,1.9c0.3,0.7,0.5,1.5,0.5,2.4c0,0.9-0.2,1.7-0.5,2.4
		c-0.3,0.7-0.8,1.3-1.3,1.9s-1.2,0.9-2,1.2c-0.8,0.3-1.6,0.4-2.4,0.4s-1.7-0.1-2.4-0.4c-0.8-0.3-1.4-0.7-2-1.2s-1-1.1-1.3-1.9
		C156,255.4,155.9,254.6,155.9,253.7z M159.3,253.7c0,0.8,0.2,1.5,0.7,2.1s1.2,0.8,2,0.8c0.9,0,1.6-0.3,2-0.8
		c0.5-0.5,0.7-1.2,0.7-2.1c0-0.8-0.2-1.5-0.7-2.1c-0.5-0.5-1.2-0.8-2-0.8c-0.9,0-1.6,0.3-2,0.8S159.3,252.9,159.3,253.7z"/>
	<path fill="#333333" d="M170.3,248.1h3.5v1.8h0c0.4-0.7,0.8-1.2,1.3-1.6c0.5-0.3,1.1-0.5,1.9-0.5c0.2,0,0.4,0,0.6,0
		c0.2,0,0.4,0,0.6,0.1v3.2c-0.2-0.1-0.5-0.1-0.7-0.2c-0.2,0-0.5-0.1-0.7-0.1c-0.7,0-1.2,0.1-1.6,0.3c-0.4,0.2-0.7,0.4-0.9,0.8
		c-0.2,0.3-0.3,0.7-0.4,1.2c-0.1,0.5-0.1,1-0.1,1.5v4.7h-3.5V248.1z"/>
	<path fill="#333333" d="M180.1,248.1h3.3v1.5h0c0.1-0.2,0.3-0.4,0.5-0.6s0.4-0.4,0.7-0.6c0.3-0.2,0.6-0.3,0.9-0.4
		c0.4-0.1,0.7-0.2,1.2-0.2c0.8,0,1.5,0.2,2.1,0.5c0.6,0.3,1.1,0.8,1.4,1.5c0.4-0.7,0.9-1.2,1.5-1.5s1.3-0.5,2.1-0.5
		c0.8,0,1.4,0.1,1.9,0.4c0.5,0.3,0.9,0.6,1.2,1c0.3,0.4,0.5,1,0.6,1.5c0.1,0.6,0.2,1.2,0.2,1.9v6.6h-3.5v-6.5c0-0.5-0.1-1-0.3-1.3
		c-0.2-0.4-0.6-0.6-1.2-0.6c-0.4,0-0.7,0.1-1,0.2c-0.3,0.1-0.5,0.3-0.6,0.5s-0.3,0.5-0.3,0.8c-0.1,0.3-0.1,0.6-0.1,1v5.9h-3.5v-5.9
		c0-0.2,0-0.4,0-0.7c0-0.3-0.1-0.6-0.2-0.8s-0.2-0.5-0.4-0.7c-0.2-0.2-0.5-0.3-0.9-0.3c-0.4,0-0.8,0.1-1.1,0.2
		c-0.3,0.2-0.5,0.4-0.6,0.6s-0.2,0.6-0.3,0.9c0,0.3-0.1,0.7-0.1,1.1v5.6h-3.5V248.1z"/>
	<path fill="#333333" d="M207.2,257.9L207.2,257.9c-0.4,0.6-0.9,1-1.6,1.3c-0.6,0.3-1.3,0.4-2,0.4c-0.5,0-1-0.1-1.5-0.2
		s-0.9-0.4-1.3-0.7c-0.4-0.3-0.7-0.7-0.9-1.1c-0.2-0.4-0.3-0.9-0.3-1.5c0-0.6,0.1-1.2,0.4-1.6c0.2-0.4,0.6-0.8,1-1.1
		c0.4-0.3,0.9-0.5,1.4-0.7c0.5-0.2,1.1-0.3,1.6-0.4s1.1-0.1,1.7-0.1c0.6,0,1.1,0,1.6,0c0-0.6-0.2-1.1-0.7-1.5s-1-0.5-1.6-0.5
		c-0.6,0-1.1,0.1-1.6,0.4c-0.5,0.2-0.9,0.6-1.3,1l-1.8-1.9c0.6-0.6,1.4-1,2.3-1.3c0.9-0.3,1.8-0.4,2.7-0.4c1,0,1.8,0.1,2.5,0.4
		c0.7,0.3,1.2,0.6,1.6,1.1c0.4,0.5,0.7,1.1,0.8,1.8c0.2,0.7,0.2,1.5,0.2,2.5v5.7h-3.2V257.9z M206.3,254.4c-0.3,0-0.6,0-1,0
		c-0.4,0-0.8,0.1-1.1,0.2c-0.4,0.1-0.7,0.3-0.9,0.5c-0.3,0.2-0.4,0.5-0.4,0.9c0,0.4,0.2,0.7,0.5,0.9c0.4,0.2,0.7,0.3,1.1,0.3
		c0.3,0,0.7,0,1-0.1c0.3-0.1,0.6-0.2,0.8-0.4c0.2-0.2,0.4-0.4,0.6-0.6c0.1-0.3,0.2-0.6,0.2-0.9v-0.7H206.3z"/>
	<path fill="#333333" d="M212.5,248.1h3.3v1.5h0c0.1-0.2,0.3-0.4,0.5-0.6s0.4-0.4,0.7-0.6c0.3-0.2,0.6-0.3,0.9-0.4
		c0.4-0.1,0.7-0.2,1.2-0.2c0.9,0,1.6,0.1,2.1,0.4c0.5,0.3,1,0.6,1.3,1.1c0.3,0.5,0.5,1,0.6,1.7c0.1,0.6,0.2,1.3,0.2,2.1v6.2h-3.5
		v-5.5c0-0.3,0-0.7,0-1s-0.1-0.7-0.2-1s-0.3-0.5-0.5-0.7c-0.2-0.2-0.6-0.3-1-0.3c-0.4,0-0.8,0.1-1.1,0.2c-0.3,0.2-0.5,0.4-0.6,0.6
		s-0.2,0.6-0.3,0.9c0,0.3-0.1,0.7-0.1,1.1v5.6h-3.5V248.1z"/>
	<path fill="#333333" d="M233.3,251.7c-0.2-0.2-0.4-0.4-0.7-0.6c-0.3-0.2-0.6-0.2-1-0.2c-0.9,0-1.6,0.3-2,0.8
		c-0.5,0.5-0.7,1.2-0.7,2.1c0,0.8,0.2,1.5,0.7,2.1c0.5,0.5,1.2,0.8,2,0.8c0.4,0,0.7-0.1,1-0.3c0.3-0.2,0.5-0.4,0.7-0.6l2.3,2.4
		c-0.5,0.6-1.2,0.9-1.9,1.2c-0.7,0.2-1.4,0.3-2.1,0.3c-0.9,0-1.7-0.1-2.4-0.4c-0.8-0.3-1.4-0.7-2-1.2c-0.6-0.5-1-1.1-1.3-1.9
		c-0.3-0.7-0.5-1.5-0.5-2.4c0-0.9,0.2-1.7,0.5-2.4c0.3-0.7,0.8-1.3,1.3-1.9c0.6-0.5,1.2-0.9,2-1.2c0.8-0.3,1.6-0.4,2.4-0.4
		c0.7,0,1.4,0.1,2.1,0.3c0.7,0.2,1.4,0.6,1.9,1.2L233.3,251.7z"/>
	<path fill="#333333" d="M247.5,257.4c-0.6,0.7-1.3,1.3-2.1,1.6s-1.7,0.6-2.6,0.6c-0.9,0-1.7-0.1-2.4-0.4c-0.8-0.3-1.4-0.7-2-1.2
		c-0.6-0.5-1-1.1-1.3-1.9c-0.3-0.7-0.5-1.5-0.5-2.4c0-0.9,0.2-1.7,0.5-2.4c0.3-0.7,0.8-1.3,1.3-1.9c0.6-0.5,1.2-0.9,2-1.2
		c0.8-0.3,1.6-0.4,2.4-0.4c0.8,0,1.5,0.1,2.2,0.4c0.7,0.3,1.2,0.7,1.7,1.2c0.5,0.5,0.8,1.1,1,1.9c0.2,0.7,0.4,1.5,0.4,2.4v1.1h-8
		c0.1,0.7,0.4,1.2,0.9,1.6s1,0.6,1.7,0.6c0.6,0,1-0.1,1.4-0.4c0.4-0.3,0.7-0.6,1-1L247.5,257.4z M244.5,252.4c0-0.6-0.2-1.1-0.6-1.5
		s-0.9-0.6-1.5-0.6c-0.4,0-0.7,0.1-1,0.2s-0.5,0.3-0.7,0.5c-0.2,0.2-0.4,0.4-0.5,0.7c-0.1,0.3-0.2,0.5-0.2,0.8H244.5z"/>
	<path fill="#333333" d="M257.4,243h6.3c0.8,0,1.6,0.1,2.4,0.2c0.7,0.2,1.4,0.4,2,0.8c0.6,0.4,1,0.9,1.3,1.5
		c0.3,0.6,0.5,1.4,0.5,2.4c0,1.2-0.3,2.1-0.9,2.9c-0.6,0.8-1.5,1.3-2.6,1.5l4.1,6.9h-4.3l-3.4-6.5H261v6.5h-3.6V243z M261,249.8h2.1
		c0.3,0,0.7,0,1,0c0.4,0,0.7-0.1,1-0.2s0.5-0.3,0.7-0.5c0.2-0.2,0.3-0.6,0.3-1c0-0.4-0.1-0.7-0.3-1c-0.2-0.2-0.4-0.4-0.6-0.6
		c-0.3-0.1-0.6-0.2-0.9-0.3s-0.7-0.1-1-0.1H261V249.8z"/>
	<path fill="#333333" d="M282.5,257.4c-0.6,0.7-1.3,1.3-2.1,1.6c-0.8,0.4-1.7,0.6-2.6,0.6c-0.9,0-1.7-0.1-2.4-0.4
		c-0.8-0.3-1.4-0.7-2-1.2c-0.6-0.5-1-1.1-1.3-1.9c-0.3-0.7-0.5-1.5-0.5-2.4c0-0.9,0.2-1.7,0.5-2.4c0.3-0.7,0.8-1.3,1.3-1.9
		c0.6-0.5,1.2-0.9,2-1.2s1.6-0.4,2.4-0.4c0.8,0,1.5,0.1,2.2,0.4s1.2,0.7,1.7,1.2c0.5,0.5,0.8,1.1,1,1.9c0.2,0.7,0.4,1.5,0.4,2.4v1.1
		h-8c0.1,0.7,0.4,1.2,0.9,1.6s1,0.6,1.7,0.6c0.6,0,1-0.1,1.4-0.4c0.4-0.3,0.7-0.6,1-1L282.5,257.4z M279.5,252.4
		c0-0.6-0.2-1.1-0.6-1.5c-0.4-0.4-0.9-0.6-1.5-0.6c-0.4,0-0.7,0.1-1,0.2s-0.5,0.3-0.7,0.5c-0.2,0.2-0.4,0.4-0.5,0.7
		c-0.1,0.3-0.2,0.5-0.2,0.8H279.5z"/>
	<path fill="#333333" d="M284.9,244.6c0-0.6,0.2-1,0.6-1.4c0.4-0.4,0.9-0.6,1.4-0.6s1,0.2,1.4,0.6c0.4,0.4,0.6,0.9,0.6,1.4
		c0,0.6-0.2,1-0.6,1.4c-0.4,0.4-0.9,0.6-1.4,0.6s-1-0.2-1.4-0.6C285,245.6,284.9,245.1,284.9,244.6z M285.1,248.1h3.5v11.2h-3.5
		V248.1z"/>
	<path fill="#333333" d="M291.1,248.1h3.3v1.5h0c0.1-0.2,0.3-0.4,0.5-0.6c0.2-0.2,0.4-0.4,0.7-0.6s0.6-0.3,0.9-0.4s0.7-0.2,1.2-0.2
		c0.8,0,1.5,0.2,2.1,0.5c0.6,0.3,1.1,0.8,1.4,1.5c0.4-0.7,0.9-1.2,1.5-1.5c0.6-0.3,1.3-0.5,2.1-0.5c0.8,0,1.4,0.1,1.9,0.4
		c0.5,0.3,0.9,0.6,1.2,1c0.3,0.4,0.5,1,0.6,1.5c0.1,0.6,0.2,1.2,0.2,1.9v6.6h-3.5v-6.5c0-0.5-0.1-1-0.3-1.3
		c-0.2-0.4-0.6-0.6-1.2-0.6c-0.4,0-0.7,0.1-1,0.2s-0.5,0.3-0.6,0.5c-0.2,0.2-0.3,0.5-0.3,0.8c-0.1,0.3-0.1,0.6-0.1,1v5.9h-3.5v-5.9
		c0-0.2,0-0.4,0-0.7c0-0.3-0.1-0.6-0.2-0.8c-0.1-0.3-0.2-0.5-0.4-0.7c-0.2-0.2-0.5-0.3-0.9-0.3c-0.4,0-0.8,0.1-1.1,0.2
		s-0.5,0.4-0.6,0.6c-0.1,0.3-0.2,0.6-0.3,0.9s-0.1,0.7-0.1,1.1v5.6h-3.5V248.1z"/>
	<path fill="#333333" d="M318.2,257.9L318.2,257.9c-0.4,0.6-0.9,1-1.6,1.3s-1.3,0.4-2,0.4c-0.5,0-1-0.1-1.5-0.2
		c-0.5-0.1-0.9-0.4-1.3-0.7c-0.4-0.3-0.7-0.7-0.9-1.1c-0.2-0.4-0.3-0.9-0.3-1.5c0-0.6,0.1-1.2,0.4-1.6c0.2-0.4,0.6-0.8,1-1.1
		s0.9-0.5,1.4-0.7c0.5-0.2,1.1-0.3,1.6-0.4s1.1-0.1,1.7-0.1c0.6,0,1.1,0,1.6,0c0-0.6-0.2-1.1-0.7-1.5c-0.4-0.4-1-0.5-1.6-0.5
		c-0.6,0-1.1,0.1-1.6,0.4s-0.9,0.6-1.3,1l-1.8-1.9c0.6-0.6,1.4-1,2.3-1.3s1.8-0.4,2.7-0.4c1,0,1.8,0.1,2.5,0.4
		c0.7,0.3,1.2,0.6,1.6,1.1c0.4,0.5,0.7,1.1,0.8,1.8c0.2,0.7,0.2,1.5,0.2,2.5v5.7h-3.2V257.9z M317.3,254.4c-0.3,0-0.6,0-1,0
		c-0.4,0-0.8,0.1-1.1,0.2s-0.7,0.3-0.9,0.5c-0.3,0.2-0.4,0.5-0.4,0.9c0,0.4,0.2,0.7,0.5,0.9c0.4,0.2,0.7,0.3,1.1,0.3
		c0.3,0,0.7,0,1-0.1c0.3-0.1,0.6-0.2,0.8-0.4c0.2-0.2,0.4-0.4,0.6-0.6c0.1-0.3,0.2-0.6,0.2-0.9v-0.7H317.3z"/>
	<path fill="#333333" d="M335.3,258.4c0,2.1-0.5,3.7-1.6,4.8c-1.1,1.1-2.7,1.6-4.9,1.6c-1,0-2-0.1-3-0.3c-1-0.2-1.9-0.7-2.7-1.3
		l1.9-2.9c0.5,0.4,1.1,0.8,1.7,1.1c0.6,0.3,1.2,0.4,1.9,0.4c1.1,0,1.8-0.3,2.3-0.8s0.7-1.2,0.7-2V258h0c-0.4,0.5-0.9,0.9-1.5,1.1
		c-0.6,0.2-1.1,0.3-1.7,0.3c-0.8,0-1.6-0.1-2.3-0.4c-0.7-0.3-1.3-0.7-1.7-1.2c-0.5-0.5-0.9-1.1-1.1-1.8c-0.3-0.7-0.4-1.5-0.4-2.3
		c0-0.7,0.1-1.5,0.4-2.2c0.2-0.7,0.6-1.3,1-1.9c0.4-0.5,1-1,1.6-1.3c0.6-0.3,1.3-0.5,2.1-0.5c0.5,0,0.9,0.1,1.3,0.2s0.8,0.2,1.1,0.4
		s0.6,0.4,0.8,0.6c0.2,0.2,0.4,0.4,0.6,0.6h0v-1.5h3.2V258.4z M326.5,253.6c0,0.4,0.1,0.7,0.2,1c0.1,0.3,0.3,0.6,0.6,0.9
		c0.3,0.3,0.5,0.5,0.9,0.6c0.3,0.2,0.7,0.2,1.1,0.2c0.4,0,0.7-0.1,1.1-0.2c0.3-0.2,0.6-0.4,0.9-0.6s0.4-0.5,0.6-0.9
		c0.1-0.3,0.2-0.7,0.2-1c0-0.4-0.1-0.7-0.2-1c-0.1-0.3-0.3-0.6-0.6-0.9c-0.3-0.3-0.5-0.5-0.9-0.6c-0.3-0.2-0.7-0.2-1.1-0.2
		c-0.4,0-0.8,0.1-1.1,0.2c-0.3,0.2-0.6,0.4-0.9,0.6c-0.3,0.3-0.4,0.5-0.6,0.9C326.6,252.9,326.5,253.3,326.5,253.6z"/>
	<path fill="#333333" d="M337.8,244.6c0-0.6,0.2-1,0.6-1.4c0.4-0.4,0.9-0.6,1.4-0.6s1,0.2,1.4,0.6c0.4,0.4,0.6,0.9,0.6,1.4
		c0,0.6-0.2,1-0.6,1.4c-0.4,0.4-0.9,0.6-1.4,0.6s-1-0.2-1.4-0.6C338,245.6,337.8,245.1,337.8,244.6z M338.1,248.1h3.5v11.2h-3.5
		V248.1z"/>
	<path fill="#333333" d="M344,248.1h3.3v1.5h0c0.1-0.2,0.3-0.4,0.5-0.6c0.2-0.2,0.4-0.4,0.7-0.6s0.6-0.3,0.9-0.4s0.7-0.2,1.2-0.2
		c0.9,0,1.6,0.1,2.1,0.4s1,0.6,1.3,1.1c0.3,0.5,0.5,1,0.6,1.7c0.1,0.6,0.2,1.3,0.2,2.1v6.2h-3.5v-5.5c0-0.3,0-0.7,0-1
		c0-0.3-0.1-0.7-0.2-1s-0.3-0.5-0.5-0.7c-0.2-0.2-0.6-0.3-1-0.3c-0.4,0-0.8,0.1-1.1,0.2s-0.5,0.4-0.6,0.6c-0.1,0.3-0.2,0.6-0.3,0.9
		s-0.1,0.7-0.1,1.1v5.6H344V248.1z"/>
	<path fill="#333333" d="M367.8,257.4c-0.6,0.7-1.3,1.3-2.1,1.6c-0.8,0.4-1.7,0.6-2.6,0.6c-0.9,0-1.7-0.1-2.4-0.4
		c-0.8-0.3-1.4-0.7-2-1.2c-0.6-0.5-1-1.1-1.3-1.9c-0.3-0.7-0.5-1.5-0.5-2.4c0-0.9,0.2-1.7,0.5-2.4c0.3-0.7,0.8-1.3,1.3-1.9
		c0.6-0.5,1.2-0.9,2-1.2s1.6-0.4,2.4-0.4c0.8,0,1.5,0.1,2.2,0.4s1.2,0.7,1.7,1.2c0.5,0.5,0.8,1.1,1,1.9c0.2,0.7,0.4,1.5,0.4,2.4v1.1
		h-8c0.1,0.7,0.4,1.2,0.9,1.6s1,0.6,1.7,0.6c0.6,0,1-0.1,1.4-0.4c0.4-0.3,0.7-0.6,1-1L367.8,257.4z M364.9,252.4
		c0-0.6-0.2-1.1-0.6-1.5c-0.4-0.4-0.9-0.6-1.5-0.6c-0.4,0-0.7,0.1-1,0.2s-0.5,0.3-0.7,0.5c-0.2,0.2-0.4,0.4-0.5,0.7
		c-0.1,0.3-0.2,0.5-0.2,0.8H364.9z"/>
	<path fill="#333333" d="M382.2,259.3H379v-1.5h0c-0.1,0.2-0.3,0.4-0.5,0.6s-0.5,0.4-0.8,0.6c-0.3,0.2-0.6,0.3-1,0.4
		s-0.7,0.2-1.1,0.2c-0.8,0-1.6-0.1-2.3-0.4c-0.7-0.3-1.3-0.7-1.7-1.2c-0.5-0.5-0.9-1.1-1.1-1.8c-0.3-0.7-0.4-1.5-0.4-2.3
		c0-0.8,0.1-1.5,0.4-2.2c0.2-0.7,0.6-1.3,1-1.9c0.4-0.6,1-1,1.6-1.3c0.6-0.3,1.3-0.5,2.1-0.5c0.7,0,1.4,0.1,2,0.3
		c0.6,0.2,1.1,0.6,1.5,1.1h0v-7.4h3.5V259.3z M379,253.7c0-0.8-0.2-1.5-0.7-2.1c-0.5-0.5-1.2-0.8-2-0.8s-1.6,0.3-2,0.8
		c-0.5,0.5-0.7,1.2-0.7,2.1c0,0.8,0.2,1.5,0.7,2.1c0.5,0.5,1.2,0.8,2,0.8s1.6-0.3,2-0.8C378.8,255.2,379,254.6,379,253.7z"/>
	<path fill="#333333" d="M385.1,257.3c0-0.3,0.1-0.6,0.2-0.8c0.1-0.3,0.3-0.5,0.4-0.7c0.2-0.2,0.4-0.3,0.7-0.5
		c0.3-0.1,0.5-0.2,0.8-0.2s0.6,0.1,0.8,0.2c0.3,0.1,0.5,0.3,0.7,0.5c0.2,0.2,0.3,0.4,0.4,0.7c0.1,0.3,0.2,0.5,0.2,0.8
		c0,0.3-0.1,0.6-0.2,0.8c-0.1,0.3-0.3,0.5-0.4,0.7c-0.2,0.2-0.4,0.3-0.7,0.4c-0.3,0.1-0.5,0.2-0.8,0.2s-0.6-0.1-0.8-0.2
		c-0.3-0.1-0.5-0.3-0.7-0.4c-0.2-0.2-0.3-0.4-0.4-0.7C385.1,257.9,385.1,257.6,385.1,257.3z"/>
	<path fill="#333333" d="M112.7,270.7h5.4l3.8,10.6h0l3.8-10.6h5.4V287h-3.6v-12.5h0l-4.3,12.5h-2.7l-4.1-12.5h0V287h-3.6V270.7z"/>
	<path fill="#333333" d="M141.1,285.6L141.1,285.6c-0.4,0.6-0.9,1-1.6,1.3c-0.6,0.3-1.3,0.4-2,0.4c-0.5,0-1-0.1-1.5-0.2
		s-0.9-0.4-1.3-0.7c-0.4-0.3-0.7-0.7-0.9-1.1c-0.2-0.4-0.3-0.9-0.3-1.5c0-0.6,0.1-1.2,0.4-1.6c0.2-0.4,0.6-0.8,1-1.1
		c0.4-0.3,0.9-0.5,1.4-0.7c0.5-0.2,1.1-0.3,1.6-0.4s1.1-0.1,1.7-0.1c0.6,0,1.1,0,1.6,0c0-0.6-0.2-1.1-0.7-1.5s-1-0.5-1.6-0.5
		c-0.6,0-1.1,0.1-1.6,0.4c-0.5,0.2-0.9,0.6-1.3,1l-1.8-1.9c0.6-0.6,1.4-1,2.3-1.3c0.9-0.3,1.8-0.4,2.7-0.4c1,0,1.8,0.1,2.5,0.4
		c0.7,0.3,1.2,0.6,1.6,1.1c0.4,0.5,0.7,1.1,0.8,1.8c0.2,0.7,0.2,1.5,0.2,2.5v5.7h-3.2V285.6z M140.2,282.1c-0.3,0-0.6,0-1,0
		c-0.4,0-0.8,0.1-1.1,0.2c-0.4,0.1-0.7,0.3-0.9,0.5c-0.3,0.2-0.4,0.5-0.4,0.9c0,0.4,0.2,0.7,0.5,0.9c0.4,0.2,0.7,0.3,1.1,0.3
		c0.3,0,0.7,0,1-0.1c0.3-0.1,0.6-0.2,0.8-0.4c0.2-0.2,0.4-0.4,0.6-0.6c0.1-0.3,0.2-0.6,0.2-0.9v-0.7H140.2z"/>
	<path fill="#333333" d="M146.4,275.8h3.5v1.8h0c0.4-0.7,0.8-1.2,1.3-1.6c0.5-0.3,1.1-0.5,1.9-0.5c0.2,0,0.4,0,0.6,0
		c0.2,0,0.4,0,0.6,0.1v3.2c-0.2-0.1-0.5-0.1-0.7-0.2c-0.2,0-0.5-0.1-0.7-0.1c-0.7,0-1.2,0.1-1.6,0.3c-0.4,0.2-0.7,0.4-0.9,0.8
		c-0.2,0.3-0.3,0.7-0.4,1.2c-0.1,0.5-0.1,1-0.1,1.5v4.7h-3.5V275.8z"/>
	<path fill="#333333" d="M155.8,269.5h3.5v10.6l3.8-4.4h4.2l-4.4,5l4.6,6.2h-4.4l-3.8-5.7h0v5.7h-3.5V269.5z"/>
	<path fill="#333333" d="M179.2,285c-0.6,0.7-1.3,1.3-2.1,1.6c-0.8,0.4-1.7,0.6-2.6,0.6c-0.9,0-1.7-0.1-2.4-0.4
		c-0.8-0.3-1.4-0.7-2-1.2c-0.6-0.5-1-1.1-1.3-1.9c-0.3-0.7-0.5-1.5-0.5-2.4c0-0.9,0.2-1.7,0.5-2.4c0.3-0.7,0.8-1.3,1.3-1.9
		c0.6-0.5,1.2-0.9,2-1.2c0.8-0.3,1.6-0.4,2.4-0.4c0.8,0,1.5,0.1,2.2,0.4c0.7,0.3,1.2,0.7,1.7,1.2c0.5,0.5,0.8,1.1,1,1.9
		c0.2,0.7,0.4,1.5,0.4,2.4v1.1h-8c0.1,0.7,0.4,1.2,0.9,1.6s1,0.6,1.7,0.6c0.6,0,1-0.1,1.4-0.4c0.4-0.3,0.7-0.6,1-1L179.2,285z
		 M176.3,280.1c0-0.6-0.2-1.1-0.6-1.5c-0.4-0.4-0.9-0.6-1.5-0.6c-0.4,0-0.7,0.1-1,0.2s-0.5,0.3-0.7,0.5c-0.2,0.2-0.4,0.4-0.5,0.7
		c-0.1,0.3-0.2,0.5-0.2,0.8H176.3z"/>
	<path fill="#333333" d="M189.5,278.5h-3v3.7c0,0.3,0,0.6,0,0.8s0.1,0.5,0.2,0.7c0.1,0.2,0.3,0.3,0.5,0.4c0.2,0.1,0.5,0.2,0.9,0.2
		c0.2,0,0.4,0,0.7-0.1c0.3,0,0.5-0.1,0.7-0.3v2.9c-0.4,0.1-0.8,0.2-1.2,0.3c-0.4,0-0.8,0.1-1.2,0.1c-0.6,0-1.1-0.1-1.6-0.2
		c-0.5-0.1-0.9-0.3-1.3-0.6c-0.4-0.3-0.7-0.6-0.9-1c-0.2-0.4-0.3-1-0.3-1.6v-5.3h-2.2v-2.8h2.2v-3.3h3.5v3.3h3V278.5z"/>
	<path fill="#333333" d="M191,272.2c0-0.6,0.2-1,0.6-1.4c0.4-0.4,0.9-0.6,1.4-0.6s1,0.2,1.4,0.6s0.6,0.9,0.6,1.4
		c0,0.6-0.2,1-0.6,1.4c-0.4,0.4-0.9,0.6-1.4,0.6s-1-0.2-1.4-0.6C191.2,273.3,191,272.8,191,272.2z M191.3,275.8h3.5V287h-3.5V275.8z
		"/>
	<path fill="#333333" d="M197.2,275.8h3.3v1.5h0c0.1-0.2,0.3-0.4,0.5-0.6s0.4-0.4,0.7-0.6c0.3-0.2,0.6-0.3,0.9-0.4
		c0.4-0.1,0.7-0.2,1.2-0.2c0.9,0,1.6,0.1,2.1,0.4c0.5,0.3,1,0.6,1.3,1.1c0.3,0.5,0.5,1,0.6,1.7c0.1,0.6,0.2,1.3,0.2,2.1v6.2h-3.5
		v-5.5c0-0.3,0-0.7,0-1s-0.1-0.7-0.2-1s-0.3-0.5-0.5-0.7c-0.2-0.2-0.6-0.3-1-0.3c-0.4,0-0.8,0.1-1.1,0.2c-0.3,0.2-0.5,0.4-0.6,0.6
		s-0.2,0.6-0.3,0.9c0,0.3-0.1,0.7-0.1,1.1v5.6h-3.5V275.8z"/>
	<path fill="#333333" d="M222.2,286c0,2.1-0.5,3.7-1.6,4.8c-1.1,1.1-2.7,1.6-4.9,1.6c-1,0-2-0.1-3-0.3s-1.9-0.7-2.7-1.3l1.9-2.9
		c0.5,0.4,1.1,0.8,1.7,1.1c0.6,0.3,1.2,0.4,1.9,0.4c1.1,0,1.8-0.3,2.3-0.8c0.5-0.5,0.7-1.2,0.7-2v-1.1h0c-0.4,0.5-0.9,0.9-1.5,1.1
		c-0.6,0.2-1.1,0.3-1.7,0.3c-0.8,0-1.6-0.1-2.3-0.4s-1.3-0.7-1.7-1.2c-0.5-0.5-0.9-1.1-1.1-1.8c-0.3-0.7-0.4-1.5-0.4-2.3
		c0-0.7,0.1-1.5,0.4-2.2c0.2-0.7,0.6-1.3,1-1.9c0.4-0.5,1-1,1.6-1.3c0.6-0.3,1.3-0.5,2.1-0.5c0.5,0,0.9,0.1,1.3,0.2
		c0.4,0.1,0.8,0.2,1.1,0.4s0.6,0.4,0.8,0.6c0.2,0.2,0.4,0.4,0.6,0.6h0v-1.5h3.2V286z M213.5,281.3c0,0.4,0.1,0.7,0.2,1
		c0.1,0.3,0.3,0.6,0.6,0.9c0.3,0.3,0.5,0.5,0.9,0.6c0.3,0.2,0.7,0.2,1.1,0.2c0.4,0,0.7-0.1,1.1-0.2c0.3-0.2,0.6-0.4,0.9-0.6
		s0.4-0.5,0.6-0.9c0.1-0.3,0.2-0.7,0.2-1c0-0.4-0.1-0.7-0.2-1c-0.1-0.3-0.3-0.6-0.6-0.9c-0.3-0.3-0.5-0.5-0.9-0.6
		c-0.3-0.2-0.7-0.2-1.1-0.2c-0.4,0-0.8,0.1-1.1,0.2c-0.3,0.2-0.6,0.4-0.9,0.6c-0.3,0.3-0.4,0.5-0.6,0.9
		C213.6,280.6,213.5,280.9,213.5,281.3z"/>
	<path fill="#333333" d="M232.2,270.7h6.3c0.8,0,1.6,0.1,2.4,0.2c0.7,0.2,1.4,0.4,2,0.8c0.6,0.4,1,0.9,1.3,1.5
		c0.3,0.6,0.5,1.4,0.5,2.4c0,1.2-0.3,2.1-0.9,2.9c-0.6,0.8-1.5,1.3-2.6,1.5l4.1,6.9H241l-3.4-6.5h-1.8v6.5h-3.6V270.7z M235.8,277.4
		h2.1c0.3,0,0.7,0,1,0c0.4,0,0.7-0.1,1-0.2c0.3-0.1,0.5-0.3,0.7-0.5c0.2-0.2,0.3-0.6,0.3-1c0-0.4-0.1-0.7-0.3-1
		c-0.2-0.2-0.4-0.4-0.6-0.6c-0.3-0.1-0.6-0.2-0.9-0.3c-0.3,0-0.7-0.1-1-0.1h-2.4V277.4z"/>
	<path fill="#333333" d="M257.3,285c-0.6,0.7-1.3,1.3-2.1,1.6c-0.8,0.4-1.7,0.6-2.6,0.6c-0.9,0-1.7-0.1-2.4-0.4
		c-0.8-0.3-1.4-0.7-2-1.2c-0.6-0.5-1-1.1-1.3-1.9c-0.3-0.7-0.5-1.5-0.5-2.4c0-0.9,0.2-1.7,0.5-2.4c0.3-0.7,0.8-1.3,1.3-1.9
		c0.6-0.5,1.2-0.9,2-1.2s1.6-0.4,2.4-0.4c0.8,0,1.5,0.1,2.2,0.4s1.2,0.7,1.7,1.2c0.5,0.5,0.8,1.1,1,1.9c0.2,0.7,0.4,1.5,0.4,2.4v1.1
		h-8c0.1,0.7,0.4,1.2,0.9,1.6s1,0.6,1.7,0.6c0.6,0,1-0.1,1.4-0.4c0.4-0.3,0.7-0.6,1-1L257.3,285z M254.4,280.1
		c0-0.6-0.2-1.1-0.6-1.5c-0.4-0.4-0.9-0.6-1.5-0.6c-0.4,0-0.7,0.1-1,0.2s-0.5,0.3-0.7,0.5c-0.2,0.2-0.4,0.4-0.5,0.7
		c-0.1,0.3-0.2,0.5-0.2,0.8H254.4z"/>
	<path fill="#333333" d="M270.6,285c-0.6,0.7-1.3,1.3-2.1,1.6c-0.8,0.4-1.7,0.6-2.6,0.6c-0.9,0-1.7-0.1-2.4-0.4
		c-0.8-0.3-1.4-0.7-2-1.2c-0.6-0.5-1-1.1-1.3-1.9c-0.3-0.7-0.5-1.5-0.5-2.4c0-0.9,0.2-1.7,0.5-2.4c0.3-0.7,0.8-1.3,1.3-1.9
		c0.6-0.5,1.2-0.9,2-1.2s1.6-0.4,2.4-0.4c0.8,0,1.5,0.1,2.2,0.4s1.2,0.7,1.7,1.2c0.5,0.5,0.8,1.1,1,1.9c0.2,0.7,0.4,1.5,0.4,2.4v1.1
		h-8c0.1,0.7,0.4,1.2,0.9,1.6s1,0.6,1.7,0.6c0.6,0,1-0.1,1.4-0.4c0.4-0.3,0.7-0.6,1-1L270.6,285z M267.6,280.1
		c0-0.6-0.2-1.1-0.6-1.5c-0.4-0.4-0.9-0.6-1.5-0.6c-0.4,0-0.7,0.1-1,0.2s-0.5,0.3-0.7,0.5c-0.2,0.2-0.4,0.4-0.5,0.7
		c-0.1,0.3-0.2,0.5-0.2,0.8H267.6z"/>
	<path fill="#333333" d="M273.2,275.8h3.3v1.5h0c0.1-0.2,0.3-0.4,0.5-0.6c0.2-0.2,0.4-0.4,0.7-0.6s0.6-0.3,0.9-0.4s0.7-0.2,1.2-0.2
		c0.9,0,1.6,0.1,2.1,0.4s1,0.6,1.3,1.1c0.3,0.5,0.5,1,0.6,1.7c0.1,0.6,0.2,1.3,0.2,2.1v6.2h-3.5v-5.5c0-0.3,0-0.7,0-1
		c0-0.3-0.1-0.7-0.2-1s-0.3-0.5-0.5-0.7c-0.2-0.2-0.6-0.3-1-0.3c-0.4,0-0.8,0.1-1.1,0.2s-0.5,0.4-0.6,0.6c-0.1,0.3-0.2,0.6-0.3,0.9
		s-0.1,0.7-0.1,1.1v5.6h-3.5V275.8z"/>
	<path fill="#333333" d="M298.2,286c0,2.1-0.5,3.7-1.6,4.8c-1.1,1.1-2.7,1.6-4.9,1.6c-1,0-2-0.1-3-0.3c-1-0.2-1.9-0.7-2.7-1.3
		l1.9-2.9c0.5,0.4,1.1,0.8,1.7,1.1c0.6,0.3,1.2,0.4,1.9,0.4c1.1,0,1.8-0.3,2.3-0.8s0.7-1.2,0.7-2v-1.1h0c-0.4,0.5-0.9,0.9-1.5,1.1
		c-0.6,0.2-1.1,0.3-1.7,0.3c-0.8,0-1.6-0.1-2.3-0.4c-0.7-0.3-1.3-0.7-1.7-1.2c-0.5-0.5-0.9-1.1-1.1-1.8c-0.3-0.7-0.4-1.5-0.4-2.3
		c0-0.7,0.1-1.5,0.4-2.2c0.2-0.7,0.6-1.3,1-1.9c0.4-0.5,1-1,1.6-1.3c0.6-0.3,1.3-0.5,2.1-0.5c0.5,0,0.9,0.1,1.3,0.2s0.8,0.2,1.1,0.4
		s0.6,0.4,0.8,0.6c0.2,0.2,0.4,0.4,0.6,0.6h0v-1.5h3.2V286z M289.5,281.3c0,0.4,0.1,0.7,0.2,1c0.1,0.3,0.3,0.6,0.6,0.9
		c0.3,0.3,0.5,0.5,0.9,0.6c0.3,0.2,0.7,0.2,1.1,0.2c0.4,0,0.7-0.1,1.1-0.2c0.3-0.2,0.6-0.4,0.9-0.6s0.4-0.5,0.6-0.9
		c0.1-0.3,0.2-0.7,0.2-1c0-0.4-0.1-0.7-0.2-1c-0.1-0.3-0.3-0.6-0.6-0.9c-0.3-0.3-0.5-0.5-0.9-0.6c-0.3-0.2-0.7-0.2-1.1-0.2
		c-0.4,0-0.8,0.1-1.1,0.2c-0.3,0.2-0.6,0.4-0.9,0.6c-0.3,0.3-0.4,0.5-0.6,0.9C289.5,280.6,289.5,280.9,289.5,281.3z"/>
	<path fill="#333333" d="M300.7,272.2c0-0.6,0.2-1,0.6-1.4c0.4-0.4,0.9-0.6,1.4-0.6s1,0.2,1.4,0.6c0.4,0.4,0.6,0.9,0.6,1.4
		c0,0.6-0.2,1-0.6,1.4c-0.4,0.4-0.9,0.6-1.4,0.6s-1-0.2-1.4-0.6C300.9,273.3,300.7,272.8,300.7,272.2z M301,275.8h3.5V287H301V275.8
		z"/>
	<path fill="#333333" d="M306.9,275.8h3.3v1.5h0c0.1-0.2,0.3-0.4,0.5-0.6c0.2-0.2,0.4-0.4,0.7-0.6s0.6-0.3,0.9-0.4s0.7-0.2,1.2-0.2
		c0.9,0,1.6,0.1,2.1,0.4s1,0.6,1.3,1.1c0.3,0.5,0.5,1,0.6,1.7c0.1,0.6,0.2,1.3,0.2,2.1v6.2h-3.5v-5.5c0-0.3,0-0.7,0-1
		c0-0.3-0.1-0.7-0.2-1s-0.3-0.5-0.5-0.7c-0.2-0.2-0.6-0.3-1-0.3c-0.4,0-0.8,0.1-1.1,0.2s-0.5,0.4-0.6,0.6c-0.1,0.3-0.2,0.6-0.3,0.9
		s-0.1,0.7-0.1,1.1v5.6h-3.5V275.8z"/>
	<path fill="#333333" d="M330.8,285c-0.6,0.7-1.3,1.3-2.1,1.6c-0.8,0.4-1.7,0.6-2.6,0.6c-0.9,0-1.7-0.1-2.4-0.4
		c-0.8-0.3-1.4-0.7-2-1.2c-0.6-0.5-1-1.1-1.3-1.9c-0.3-0.7-0.5-1.5-0.5-2.4c0-0.9,0.2-1.7,0.5-2.4c0.3-0.7,0.8-1.3,1.3-1.9
		c0.6-0.5,1.2-0.9,2-1.2s1.6-0.4,2.4-0.4c0.8,0,1.5,0.1,2.2,0.4s1.2,0.7,1.7,1.2c0.5,0.5,0.8,1.1,1,1.9c0.2,0.7,0.4,1.5,0.4,2.4v1.1
		h-8c0.1,0.7,0.4,1.2,0.9,1.6s1,0.6,1.7,0.6c0.6,0,1-0.1,1.4-0.4c0.4-0.3,0.7-0.6,1-1L330.8,285z M327.8,280.1
		c0-0.6-0.2-1.1-0.6-1.5c-0.4-0.4-0.9-0.6-1.5-0.6c-0.4,0-0.7,0.1-1,0.2s-0.5,0.3-0.7,0.5c-0.2,0.2-0.4,0.4-0.5,0.7
		c-0.1,0.3-0.2,0.5-0.2,0.8H327.8z"/>
	<path fill="#333333" d="M344,285c-0.6,0.7-1.3,1.3-2.1,1.6c-0.8,0.4-1.7,0.6-2.6,0.6c-0.9,0-1.7-0.1-2.4-0.4
		c-0.8-0.3-1.4-0.7-2-1.2c-0.6-0.5-1-1.1-1.3-1.9c-0.3-0.7-0.5-1.5-0.5-2.4c0-0.9,0.2-1.7,0.5-2.4c0.3-0.7,0.8-1.3,1.3-1.9
		c0.6-0.5,1.2-0.9,2-1.2s1.6-0.4,2.4-0.4c0.8,0,1.5,0.1,2.2,0.4s1.2,0.7,1.7,1.2c0.5,0.5,0.8,1.1,1,1.9c0.2,0.7,0.4,1.5,0.4,2.4v1.1
		h-8c0.1,0.7,0.4,1.2,0.9,1.6s1,0.6,1.7,0.6c0.6,0,1-0.1,1.4-0.4c0.4-0.3,0.7-0.6,1-1L344,285z M341.1,280.1c0-0.6-0.2-1.1-0.6-1.5
		c-0.4-0.4-0.9-0.6-1.5-0.6c-0.4,0-0.7,0.1-1,0.2s-0.5,0.3-0.7,0.5c-0.2,0.2-0.4,0.4-0.5,0.7c-0.1,0.3-0.2,0.5-0.2,0.8H341.1z"/>
	<path fill="#333333" d="M346.6,275.8h3.5v1.8h0c0.4-0.7,0.8-1.2,1.3-1.6c0.5-0.3,1.1-0.5,1.9-0.5c0.2,0,0.4,0,0.6,0
		c0.2,0,0.4,0,0.6,0.1v3.2c-0.2-0.1-0.5-0.1-0.7-0.2c-0.2,0-0.5-0.1-0.7-0.1c-0.7,0-1.2,0.1-1.6,0.3c-0.4,0.2-0.7,0.4-0.9,0.8
		c-0.2,0.3-0.3,0.7-0.4,1.2s-0.1,1-0.1,1.5v4.7h-3.5V275.8z"/>
	<path fill="#333333" d="M366.2,285c-0.6,0.7-1.3,1.3-2.1,1.6c-0.8,0.4-1.7,0.6-2.6,0.6c-0.9,0-1.7-0.1-2.4-0.4
		c-0.8-0.3-1.4-0.7-2-1.2c-0.6-0.5-1-1.1-1.3-1.9c-0.3-0.7-0.5-1.5-0.5-2.4c0-0.9,0.2-1.7,0.5-2.4c0.3-0.7,0.8-1.3,1.3-1.9
		c0.6-0.5,1.2-0.9,2-1.2s1.6-0.4,2.4-0.4c0.8,0,1.5,0.1,2.2,0.4s1.2,0.7,1.7,1.2c0.5,0.5,0.8,1.1,1,1.9c0.2,0.7,0.4,1.5,0.4,2.4v1.1
		h-8c0.1,0.7,0.4,1.2,0.9,1.6s1,0.6,1.7,0.6c0.6,0,1-0.1,1.4-0.4c0.4-0.3,0.7-0.6,1-1L366.2,285z M363.2,280.1
		c0-0.6-0.2-1.1-0.6-1.5c-0.4-0.4-0.9-0.6-1.5-0.6c-0.4,0-0.7,0.1-1,0.2s-0.5,0.3-0.7,0.5c-0.2,0.2-0.4,0.4-0.5,0.7
		c-0.1,0.3-0.2,0.5-0.2,0.8H363.2z"/>
	<path fill="#333333" d="M380.6,287h-3.2v-1.5h0c-0.1,0.2-0.3,0.4-0.5,0.6s-0.5,0.4-0.8,0.6c-0.3,0.2-0.6,0.3-1,0.4
		s-0.7,0.2-1.1,0.2c-0.8,0-1.6-0.1-2.3-0.4c-0.7-0.3-1.3-0.7-1.7-1.2c-0.5-0.5-0.9-1.1-1.1-1.8c-0.3-0.7-0.4-1.5-0.4-2.3
		c0-0.8,0.1-1.5,0.4-2.2c0.2-0.7,0.6-1.3,1-1.9c0.4-0.6,1-1,1.6-1.3c0.6-0.3,1.3-0.5,2.1-0.5c0.7,0,1.4,0.1,2,0.3
		c0.6,0.2,1.1,0.6,1.5,1.1h0v-7.4h3.5V287z M377.4,281.4c0-0.8-0.2-1.5-0.7-2.1c-0.5-0.5-1.2-0.8-2-0.8s-1.6,0.3-2,0.8
		c-0.5,0.5-0.7,1.2-0.7,2.1c0,0.8,0.2,1.5,0.7,2.1c0.5,0.5,1.2,0.8,2,0.8s1.6-0.3,2-0.8C377.1,282.9,377.4,282.2,377.4,281.4z"/>
	<path fill="#333333" d="M383.4,285c0-0.3,0.1-0.6,0.2-0.8c0.1-0.3,0.3-0.5,0.4-0.7c0.2-0.2,0.4-0.3,0.7-0.5
		c0.3-0.1,0.5-0.2,0.8-0.2s0.6,0.1,0.8,0.2c0.3,0.1,0.5,0.3,0.7,0.5c0.2,0.2,0.3,0.4,0.4,0.7c0.1,0.3,0.2,0.5,0.2,0.8
		c0,0.3-0.1,0.6-0.2,0.8c-0.1,0.3-0.3,0.5-0.4,0.7c-0.2,0.2-0.4,0.3-0.7,0.4c-0.3,0.1-0.5,0.2-0.8,0.2s-0.6-0.1-0.8-0.2
		c-0.3-0.1-0.5-0.3-0.7-0.4c-0.2-0.2-0.3-0.4-0.4-0.7C383.4,285.6,383.4,285.3,383.4,285z"/>
</g>
</svg>
