<?xml version="1.0" encoding="UTF-8" standalone="no"?>
<!-- Created with Inkscape (http://www.inkscape.org/) -->
<svg xmlns:dc="http://purl.org/dc/elements/1.1/" xmlns:cc="http://creativecommons.org/ns#" xmlns:rdf="http://www.w3.org/1999/02/22-rdf-syntax-ns#" xmlns:svg="http://www.w3.org/2000/svg" xmlns="http://www.w3.org/2000/svg" xmlns:sodipodi="http://sodipodi.sourceforge.net/DTD/sodipodi-0.dtd" xmlns:inkscape="http://www.inkscape.org/namespaces/inkscape" id="svg2" version="1.1" inkscape:version="0.48.3.1 r9886" width="630" height="360" viewbox="0 0 630 360" xml:space="preserve" sodipodi:docname="pairLOGO.svg"><metadata id="metadata8"><rdf:RDF><cc:Work rdf:about=""><dc:format>image/svg+xml</dc:format><dc:type rdf:resource="http://purl.org/dc/dcmitype/StillImage"/><dc:title/></cc:Work></rdf:RDF></metadata><defs id="defs6"/><sodipodi:namedview pagecolor="#ffffff" bordercolor="#666666" borderopacity="1" objecttolerance="10" gridtolerance="10" guidetolerance="10" inkscape:pageopacity="0" inkscape:pageshadow="2" inkscape:window-width="1680" inkscape:window-height="974" id="namedview4" showgrid="false" inkscape:zoom="0.66252589" inkscape:cx="830.2002" inkscape:cy="467.39559" inkscape:window-x="0" inkscape:window-y="24" inkscape:window-maximized="1" inkscape:current-layer="g10" units="in"/><g id="g10" inkscape:groupmode="layer" inkscape:label="ink_ext_XXXXXX" transform="matrix(1.25,0,0,-1.25,0,360.00005)"><g id="g12" transform="matrix(0.15205432,0,0,0.15205432,-722.30858,-1966.3086)"><path d="m 7396.25,14668.5 c 36.42,0 67.69,-13.3 93.75,-39.6 26.06,-26.4 39.12,-58.4 39.12,-96 0,-37 -12.93,-68.6 -38.73,-94.8 -25.8,-26.1 -56.69,-39.2 -92.66,-39.2 -36.93,0 -68.46,13.3 -94.52,40 -26.05,26.6 -39.05,59 -39.05,97.1 0,36.5 12.87,67.7 38.67,93.6 25.8,25.9 56.94,38.9 93.42,38.9" style="fill:#ffc71d;fill-opacity:1;fill-rule:nonzero;stroke:none" id="path14" inkscape:connector-curvature="0"/><path d="m 6918.58,13478 207.891,0 0,828.457 -207.891,0 0,-828.457 z" style="fill:#ffc71d;fill-opacity:1;fill-rule:nonzero;stroke:none" id="path16" inkscape:connector-curvature="0"/><path d="m 7021.27,14668.5 c 36.48,0 67.75,-13.3 93.81,-39.6 26.06,-26.4 39.12,-58.4 39.12,-96 0,-37 -12.93,-68.6 -38.74,-94.8 -25.86,-26.1 -56.75,-39.2 -92.65,-39.2 -36.93,0 -68.46,13.3 -94.52,40 -26.06,26.6 -39.12,59 -39.12,97.1 0,36.5 12.94,67.7 38.74,93.6 25.8,25.9 56.94,38.9 93.36,38.9" style="fill:#ffc71d;fill-opacity:1;fill-rule:nonzero;stroke:none" id="path18" inkscape:connector-curvature="0"/><path d="m 6312.85,13666.3 c -122.99,0 -222.69,99.7 -222.69,222.7 0,123 99.7,222.7 222.69,222.7 122.97,0 222.7,-99.7 222.7,-222.7 0,-123 -99.73,-222.7 -222.7,-222.7 z m 236.02,640.2 0,-91.4 c -37,37.5 -77.34,65.7 -120.96,84.5 -43.59,18.8 -90.22,28.2 -139.91,28.2 -108.02,0 -199.79,-40.9 -275.33,-122.6 -75.55,-81.8 -113.32,-186.6 -113.32,-314.5 0,-123.3 39.04,-226.5 117.13,-309.5 78.07,-83 170.62,-124.5 277.59,-124.5 47.68,0 91.89,8.5 132.72,25.5 40.82,17 81.48,44.8 122.08,83.4 l 0,-87.6 207.89,0 0,828.5 -207.89,0" style="fill:#0490b8;fill-opacity:1;fill-rule:nonzero;stroke:none" id="path20" inkscape:connector-curvature="0"/><path d="m 5430.35,13666.3 c -122.97,0 -222.68,99.7 -222.68,222.7 0,123 99.71,222.7 222.68,222.7 122.99,0 222.7,-99.7 222.7,-222.7 0,-123 -99.71,-222.7 -222.7,-222.7 z m 300.67,538.9 c -75.65,81.7 -167.51,122.6 -275.64,122.6 -49.76,0 -96.47,-9.4 -140.11,-28.2 -43.67,-18.8 -84.28,-47 -121.82,-84.5 l 0,91.4 -206.36,0 0,-1209.9 206.36,0 0,469 c 40.6,-38.6 81.46,-66.4 122.59,-83.4 41.11,-17 85.53,-25.5 133.25,-25.5 107.1,0 199.73,41.5 277.92,124.5 78.18,83 117.28,186.2 117.28,309.5 0,127.9 -37.83,232.7 -113.47,314.5" style="fill:#0490b8;fill-opacity:1;fill-rule:nonzero;stroke:none" id="path22" inkscape:connector-curvature="0"/><path d="m 7745.5,14327.8 c -49.73,0 -96.45,-9.4 -140.13,-28.2 -37.77,-16.3 -73.16,-39.9 -106.36,-70.3 l 0,77.2 -207.89,0 0,-828.5 207.89,0 0,429.9 c 9.65,114.1 104.88,203.8 221.46,203.8 39.06,0 75.73,-10.2 107.71,-27.9 l 0,235.2 c -26.44,5.8 -53.98,8.8 -82.68,8.8" style="fill:#0490b8;fill-opacity:1;fill-rule:nonzero;stroke:none" id="path24" inkscape:connector-curvature="0"/><path d="m 5565.86,13235.2 c 0,16.7 -3.69,31 -11.02,42.8 -11.68,17.7 -30.46,27.1 -54.37,27.1 -26.41,0 -46.52,-13.2 -63.98,-29 l 0,25.4 -85.09,0 0,-50.2 29.1,0 0,-105.6 -29.1,0 0,-49.3 113.74,0 0,49.3 -26.87,0 0,85.6 c 11.98,9.6 29.19,20.5 46.1,20.5 9.84,0 16.45,-3.5 20.23,-10.7 2.24,-4.1 3.47,-10.5 3.47,-18 l 0,-77.4 -26.85,0 0,-49.3 113.73,0 0,49.3 -29.09,0 0,89.5" style="fill:#ffc71d;fill-opacity:1;fill-rule:nonzero;stroke:none" id="path26" inkscape:connector-curvature="0"/><path d="m 5795.55,13220.9 -85.01,0 c 7.68,32.2 32.25,35.8 42.85,35.8 23.77,0 39.56,-13.6 42.16,-35.8 z m -41.71,84.2 c -60.2,0 -103.88,-44.8 -103.88,-106.6 0,-63.2 45.34,-105.6 112.83,-105.6 29.88,0 55.64,6.2 76.59,18.5 l 1.99,1.2 5.03,54.7 -7.48,-4.3 c -23.04,-13.1 -46.88,-20 -68.96,-20 -22.01,0 -49.38,6.3 -58.61,34.9 l 139.28,0 0.73,3.6 c 1.39,7 2.32,17.1 2.32,25.1 0,59.8 -39.19,98.5 -99.84,98.5" style="fill:#ffc71d;fill-opacity:1;fill-rule:nonzero;stroke:none" id="path28" inkscape:connector-curvature="0"/><path d="m 6030.92,13145.3 c -8.37,0 -13.98,2.4 -16.67,7.1 -1.87,3.3 -2.57,6.6 -2.57,12.1 l 0,86.8 59.55,0 0,50.2 -59.55,0 0,48.5 -57.32,-1.1 0,-47.4 -38.05,0 0,-50.2 38.05,0 0,-96.2 c 0,-13.2 2.43,-24.3 7.22,-33 10.03,-19.1 29.67,-29.2 56.81,-29.2 16.45,0 32.93,4 49,12.1 l 2.23,1.1 5.01,52.3 -7.1,-3.2 c -9.76,-4.6 -24.05,-9.9 -36.61,-9.9" style="fill:#ffc71d;fill-opacity:1;fill-rule:nonzero;stroke:none" id="path30" inkscape:connector-curvature="0"/><path d="m 6362.14,13252.2 30.81,0 -21.66,-77.6 -41.87,106.8 -39.7,0 -42.31,-106.9 -21.7,77.7 26.35,0 0,49.3 -109.71,0 0,-50.2 29.78,0 48.35,-162.5 40.85,0 45.77,112.6 45.78,-112.6 40.84,0 48.34,162.5 29.79,0 0,50.2 -109.71,0 0,-49.3" style="fill:#ffc71d;fill-opacity:1;fill-rule:nonzero;stroke:none" id="path32" inkscape:connector-curvature="0"/><path d="m 6664.3,13199 c 0,-33.2 -20.46,-56.4 -49.68,-56.4 -29.27,0 -49.67,23.2 -49.67,56.4 0,33.2 20.4,56.4 49.67,56.4 29.22,0 49.68,-23.2 49.68,-56.4 z m -49.68,106.1 c -62.02,0 -108.8,-45.6 -108.8,-106.1 0,-52.8 37.39,-106.1 108.8,-106.1 62.03,0 108.81,45.6 108.81,106.1 0,52.7 -37.38,106.1 -108.81,106.1" style="fill:#ffc71d;fill-opacity:1;fill-rule:nonzero;stroke:none" id="path34" inkscape:connector-curvature="0"/><path d="m 6931.12,13305.1 c -20.33,0 -39.24,-12.4 -57.78,-37.7 l 0,34.1 -85.05,0 0,-50.2 29.08,0 0,-105.6 -29.08,0 0,-49.3 120.89,0 0,49.3 -34.03,0 0,71.4 c 7.59,13.9 20.65,26.9 32.42,32.6 5.28,-8.5 15.51,-16.3 30.7,-16.3 18.53,0 33.59,15.7 33.59,35 0,18.2 -12.62,36.7 -40.74,36.7" style="fill:#ffc71d;fill-opacity:1;fill-rule:nonzero;stroke:none" id="path36" inkscape:connector-curvature="0"/><path d="m 7124.47,13253.6 19.63,0 -40.67,-35 0,154.2 -86.86,0 0,-50.2 29.08,0 0,-176.9 -29.08,0 0,-49.3 111.5,0 0,48.4 -24.64,0 0,18.5 22.71,19.1 54.95,-86 68.27,0 0,50.2 -34.29,0 -46.14,69.9 41.31,34.8 39.12,0 0,50.2 -124.89,0 0,-47.9" style="fill:#ffc71d;fill-opacity:1;fill-rule:nonzero;stroke:none" id="path38" inkscape:connector-curvature="0"/><path d="m 7403.14,13223.9 c -28.31,7.6 -37.84,12.8 -37.84,20.7 0,7.6 8.82,15.7 28.19,15.7 7.78,0 15.7,-1.2 22.52,-3.4 -0.2,-1.8 -0.2,-3.7 -0.2,-5.5 0,-17.2 12.42,-28.7 30.95,-28.7 16.86,0 28.63,12.7 28.63,30.9 0,10.7 -4.05,20.2 -12.03,28.2 -13.77,13.8 -42.79,23.7 -68.97,23.7 -58.17,0 -84.68,-34.5 -84.68,-66.7 0,-37.2 27.09,-51.1 80.37,-65.2 29.4,-7.9 35.13,-13.1 35.13,-19.4 0,-12.2 -16.15,-16.5 -31.27,-16.5 -10.62,0 -21.49,1.7 -30.37,4.7 0.19,1.7 0.38,3.4 0.38,5.1 0,20 -15.57,30.5 -30.95,30.5 -17.05,0 -30.43,-13.6 -30.43,-31 0,-11.8 3.86,-20.9 12.55,-29.5 14.22,-14.3 47.93,-25.1 78.37,-25.1 43.43,0 87.31,20.9 87.31,67.6 0,40 -33.65,52.2 -77.66,63.9" style="fill:#ffc71d;fill-opacity:1;fill-rule:nonzero;stroke:none" id="path40" inkscape:connector-curvature="0"/></g></g></svg>